<svg width="296" height="186" fill="none" xmlns="http://www.w3.org/2000/svg">
  <g id="chip">
    <path
      d="M204.38 50.471L204 55.5l20.5 3 1.134.931h-52.066c-.091 0-.186 0-.284-.002-.726-.007-1.623-.015-2.209.328-.58.343-.878.884-1.276 1.608-.454.825-1.039 1.89-2.324 3.173a14.222 14.222 0 01-9.907 4.173c-3.427.038-6.406-.435-9.28-2.493-7.094-5.075-8.109-14.944-1.865-21.133 2.982-2.953 5.923-3.558 9.865-4.067 3.895-.198 7.933 1.223 10.787 3.892.935.87 1.828 1.916 2.503 3.001.108.175.22.379.337.593.338.62.723 1.325 1.218 1.64.546.348 1.444.337 2.146.33l.289-.003h30.812zM165.889 166.5h-29.16a13.772 13.772 0 015.159-10.947c2.688-2.154 5.341-2.73 8.64-3.175 8.405-.429 15.385 5.59 15.361 14.122zm84.251-1.465l-3.191.655a14.442 14.442 0 012.139-.585c.307-.035.667-.057 1.052-.07zM238.5 70.717c-4.939 4.487-5.874 11.961-2.18 17.514 2.931 4.403 7.269 6.323 12.365 6.398L238.5 90.5V70.717zm30.428 37.507L271 110l6.5 19.5L274 150l-11.5 12.5-2.096.43a14.332 14.332 0 01-.653-1.099c-4.032-7.513.486-18.157 9.177-19.52v-34.087zm-160.733 20.647c.746-6.281-4.601-13.11-10.787-14.08v-16.64c.005-2.953.975-3.75 2.639-5.117.457-.376.966-.794 1.521-1.312l4.131-4.073 3.869-3.578.316-.316c1.237-1.239 3.726-3.73 4.804-4.327.911-.507 1.617-.238 2.43.072.245.093.498.19.77.27 1.168.346 3.607.8 4.8.75 7.84-.35 14.522-6.206 14.211-14.369-.425-11.123-13.382-17.072-22.531-11.293-3.904 2.464-6.557 6.621-6.707 11.293-.02.617.13 1.494.284 2.403.247 1.448.508 2.98.122 3.677-.443.803-1.994 2.172-3.256 3.286-.524.463-.999.882-1.323 1.197l-10.24 9.904a42.25 42.25 0 01-1.735 1.55C89.377 90 87.851 91.31 87.808 94.95v17.6l.002.29c.008.704.019 1.597-.328 2.145-.276.435-.832.772-1.547 1.205-1.036.628-2.405 1.457-3.736 3.08-3.735 4.544-4.23 10.579-1.322 15.68 2.448 4.298 6.928 6.528 11.731 6.995 1.221.112 2.122-.025 2.867-.139.873-.133 1.532-.234 2.24.139.848.455 1.911 1.943 2.992 3.456.981 1.372 1.976 2.764 2.836 3.421 1.43 1.095 3.654 1.165 5.385 1.168h65.6l.29-.002c.704-.008 1.597-.018 2.145.329.413.262.761.824 1.215 1.558.552.893 1.263 2.042 2.443 3.222 2.291 2.292 5.728 3.796 8.947 4.119 7.847.784 15.901-4.762 16-13.066v-1.28c-.035-7.817-7.357-13.904-15.04-13.411-3.533.227-6.947 1.482-9.597 3.869-1.488 1.345-2.258 2.679-2.843 3.692-.429.744-.758 1.314-1.198 1.588-.554.342-2.637.413-3.322.422h-61.12c-3.11-.006-3.424-.355-5.318-2.88a30.142 30.142 0 00-.147-.192c-.408-.531-1.059-1.379-1.104-1.913-.037-.413.418-1.259.79-1.951.156-.289.297-.552.381-.744.621-1.424.963-2.941 1.145-4.48zm89.984-47.68c.468-8.198-7.686-15.165-15.651-14.262-3.747.563-6.294 1.193-9.187 3.9-.912.849-1.853 1.94-2.499 3.002a9.895 9.895 0 00-.349.64c-.316.61-.659 1.275-1.171 1.594-.559.345-1.476.336-2.19.328a26.003 26.003 0 00-.284-.002h-16c-3.233.005-4.057.813-5.678 2.403-.469.459-1.003.983-1.682 1.572l-10.88 10.195c-.28.248-.709.668-1.186 1.134-.98.96-2.161 2.115-2.654 2.367-.771.393-1.472.18-2.213-.045-.218-.066-.439-.133-.667-.186-1.398-.326-3.049-.563-4.48-.425-7.651.73-14.064 6.284-13.747 14.345.458 11.671 14.198 17.111 23.347 10.81 3.875-2.669 6.221-7.367 5.866-12.09-.093-1.232-.288-2.358-.717-3.52-.045-.119-.1-.249-.157-.385-.232-.548-.509-1.202-.345-1.714.129-.402 1.935-2.07 3.109-3.153.396-.367.721-.666.884-.828l8.64-8.029a27.887 27.887 0 001.407-1.42c1.299-1.383 1.941-2.066 4.673-2.07h12.48l.285-.003c.726-.007 1.622-.015 2.208.328l3.936 5.085c2.394 2.362 6.224 3.828 9.571 3.87 2.995.034 5.328-.203 8-1.748 4.394-2.547 7.04-6.608 7.331-11.693zm14.749 29.76h26.496c.064.877.208 4.999 0 5.507l-5.043 3.348c-2.918 2.403-4.89 6.873-4.694 10.665.78 15.146 22.006 18.343 28.073 5.12 2.317-5.046 1.226-11.046-2.621-15.027-.972-1.005-2.262-1.933-3.491-2.605a10.759 10.759 0 00-.604-.296c-.618-.288-1.317-.615-1.629-1.083-.304-.462-.315-1.086-.324-1.634l-.003-.155v-7.04c-.003-2.499-.445-4.688-3.2-5.552-.686-.216-1.537-.212-2.286-.209l-.274.001h-33.92l-.284-.001c-.859-.004-1.801-.008-2.596.286-1.534.567-4.566 3.58-7.052 6.051-1.134 1.126-2.154 2.14-2.868 2.759-.594.515-1.038.958-1.415 1.333-1.225 1.219-1.736 1.727-4.345 1.732h-15.68l-.284.002c-.726.007-1.623.016-2.209-.328-.543-.321-.863-.876-1.295-1.623-.481-.834-1.101-1.906-2.321-3.158-2.438-2.502-6.073-4.131-9.571-4.173-6.003-.07-11.062 1.799-14.112 7.36-4.966 9.063 2.074 20.042 12.192 20.16 4.327.048 7.511-.592 10.88-3.577.944-.839 1.744-1.751 2.41-2.823.132-.211.261-.451.396-.699.384-.71.805-1.489 1.421-1.854.586-.344 1.483-.336 2.209-.329l.284.002h19.2l.302.001c.877.005 1.746.009 2.578-.324 1.564-.624 5.143-4.094 7.738-6.611.879-.852 1.645-1.595 2.182-2.08.574-.52 1.006-.967 1.374-1.347 1.22-1.264 1.733-1.794 4.386-1.799z"
      fill="#fff" />




  </g>
  <g id="chip-line">
    <path
      d="M204 55.5l-.499-.038-.035.465.462.068.072-.495zm.38-5.029l.498.038.041-.538h-.539v.5zM224.5 58.5l.317-.386-.107-.089-.138-.02-.072.495zm1.134.931v.5h1.396l-1.079-.886-.317.386zm-54.559.327l-.253-.432h-.001l.254.431zm-14.787-18.74l-.025-.499-.02.001-.019.002.064.496zm10.787 3.892l-.341.365h.001l.34-.365zm4.058 5.235l-.269.421h.001l.268-.421zM136.729 166.5l-.5.007.006.493h.494v-.5zm29.16 0v.5h.499l.001-.499-.5-.001zm-15.361-14.122l-.025-.499-.021.001-.021.003.067.495zm96.421 13.312l-.168-.471.268.961-.1-.49zm3.191-.655l.1.49-.116-.989.016.499zm-1.052.07l-.056-.497-.019.002-.019.004.094.491zM238.5 70.717h.5v-1.13l-.836.76.336.37zm10.185 23.912l-.007.5.195-.963-.188.463zM238.5 90.5h-.5v.337l.312.126.188-.463zM271 110l.474-.158-.043-.131-.106-.091-.325.38zm-2.072-1.776l.326-.379-.826-.708v1.087h.5zM277.5 129.5l.493.084.021-.123-.04-.119-.474.158zM274 150l.368.339.1-.109.025-.146L274 150zm-11.5 12.5l.1.49.159-.033.109-.118-.368-.339zm-2.096.43l-.418.274.186.284.333-.068-.101-.49zm8.524-20.619l.078.494.422-.066v-.428h-.5zm-171.52-27.52h-.5v.428l.423.066.077-.494zm4.16-23.069l.341.366.005-.005.005-.005-.351-.356zm4.131-4.073l-.339-.367-.006.005-.006.006.351.356zm3.869-3.578l.34.367.007-.006.006-.007-.353-.354zm5.12-4.643l.242.438.001-.001-.243-.437zm-11.2-2.714l.348.36.001-.001-.349-.359zm-10.24 9.904l.346.362.002-.002-.348-.36zm-5.44 8.333l-.5-.006v.006h.5zm-5.61 24.32l.387.318v-.001l-.386-.317zm10.41 22.675l-.048.498h.002l.046-.498zm5.107 0l.237-.44-.004-.002-.233.442zm79.248 8.372l.269-.422-.001-.001-.268.423zm28.605-4.167l.5.006v-.006h-.5zm0-1.28h.5v-.002l-.5.002zm-24.637-9.542l-.334-.372-.001.001.335.371zm-4.041 5.28l.263.425.001-.001-.264-.424zm-3.322.422v.5h.007l-.007-.5zm-66.438-2.88l.4-.3-.001-.001-.399.301zm-1.251-2.105l.498-.043v-.001l-.498.044zm1.171-2.695l.458.201v-.001l-.458-.2zm75.478-66.422l-.056-.497h-.009l-.009.002.074.495zm-9.187 3.9l.34.367.002-.001-.342-.365zm-2.499 3.002l.426.26h.001l-.427-.26zm-1.52 2.234l.263.425h.001l-.264-.425zm-18.474.326v-.5h-.001l.001.5zm-7.36 3.974l-.328-.377-.007.006-.007.007.342.364zm-10.88 10.196l.331.374.006-.005.005-.004-.342-.365zm-3.84 3.5l.227.446h.001l-.228-.446zm7.389 8.89l.469-.173-.001-.002-.468.175zm-.502-2.099l-.476-.153-.001.001.477.152zm3.993-3.98l-.34-.367-.006.005-.006.006.352.355zm29.693-11.195l.395-.306-.059-.076-.083-.049-.253.431zm3.936 5.085l-.395.306.02.027.024.023.351-.356zm66.147 20.189l.499-.036-.034-.464h-.465v.5zm0 5.507l.277.417.128-.085.058-.142-.463-.19zm-5.043 3.348l-.277-.417-.021.014-.02.017.318.386zm15.034-3.226l-.418.275.002.002.416-.277zm-.327-1.789h-.5v.011l.5-.011zm-52.48-3.705l-.327-.378h-.001l.328.378zm-23.933 2.739l-.254.43.001.001.253-.431zm-15.107 18.566l-.006.5h.001l.005-.5zm10.88-3.577l.332.374v-.001l-.332-.373zm2.41-2.823l-.424-.265-.001.001.425.264zm1.817-2.553l-.253-.432-.001.001.254.431zm24.573-.65l-.185-.464h-.001l.186.464zm7.251-67.25l.379-5.03-.997-.075-.38 5.03.998.075zm20.073 2.467l-20.5-3-.144.99 20.5 3 .144-.99zm1.379 1.04l-1.134-.931-.634.772 1.133.931.635-.772zm-.317-.114h-52.066v1h52.066v-1zm-52.066 0c-.088 0-.181 0-.28-.002l-.009 1 .289.002v-1zm-.28-.002c-.358-.003-.791-.008-1.212.035-.417.043-.87.137-1.254.362l.506.863c.203-.12.491-.193.85-.23.356-.036.733-.033 1.101-.03l.009-1zm-2.467.398c-.719.424-1.076 1.098-1.461 1.797l.877.482c.413-.75.65-1.157 1.093-1.418l-.509-.861zm-1.461 1.797c-.446.813-1.005 1.827-2.238 3.06l.707.708c1.335-1.335 1.947-2.448 2.408-3.285l-.877-.483zm-2.238 3.06a13.724 13.724 0 01-9.56 4.027l.012 1a14.725 14.725 0 0010.255-4.32l-.707-.706zm-9.559 4.027c-3.374.038-6.231-.428-8.984-2.4l-.582.814c2.995 2.144 6.096 2.625 9.577 2.586l-.011-1zm-8.984-2.4c-6.853-4.902-7.818-14.409-1.804-20.37l-.704-.71c-6.473 6.415-5.409 16.646 1.926 21.894l.582-.813zm-1.805-20.37c2.861-2.833 5.66-3.421 9.578-3.927l-.128-.992c-3.967.512-7.049 1.134-10.153 4.208l.703.71zm9.54-3.923c3.763-.192 7.668 1.184 10.42 3.757l.683-.73c-2.957-2.765-7.129-4.231-11.154-4.026l.051.999zm10.421 3.757c.906.845 1.77 1.858 2.418 2.9l.849-.528c-.701-1.127-1.624-2.207-2.586-3.103l-.681.731zm2.418 2.9c.1.16.204.351.323.569l.878-.48c-.115-.21-.234-.428-.352-.617l-.849.528zm.323.569c.167.305.36.659.577.976.214.314.479.634.811.846l.538-.843c-.163-.104-.337-.294-.524-.567a10.44 10.44 0 01-.524-.892l-.878.48zm1.389 1.823c.37.235.823.33 1.23.373.414.043.844.037 1.19.033l-.011-1a9.49 9.49 0 01-1.075-.028c-.353-.037-.622-.11-.798-.222l-.536.844zm2.42.406l.283-.002v-1l-.294.002.011 1zm.283-.002h30.812v-1h-30.812v1zM136.729 167h29.16v-1h-29.16v1zm.5-.507a13.273 13.273 0 014.972-10.55l-.625-.78a14.268 14.268 0 00-5.347 11.344l1-.014zm4.972-10.55c2.578-2.066 5.118-2.628 8.394-3.069l-.134-.991c-3.322.448-6.088 1.038-8.885 3.28l.625.78zm8.353-3.065c8.145-.417 14.858 5.401 14.835 13.621l1 .002c.025-8.845-7.222-15.065-15.886-14.622l.051.999zm96.495 13.302l3.191-.655-.2-.979-3.191.654.2.98zm.068-.019a13.89 13.89 0 012.066-.565l-.189-.982a14.85 14.85 0 00-2.213.605l.336.942zm2.027-.559c.29-.033.635-.055 1.012-.067l-.032-.999c-.393.012-.767.035-1.092.072l.112.994zm-12.408-77.648c-3.557-5.346-2.656-12.546 2.1-16.867l-.672-.74c-5.122 4.652-6.092 12.402-2.26 18.161l.832-.554zm11.956 6.175c-4.96-.073-9.131-1.931-11.956-6.175l-.832.554c3.037 4.562 7.542 6.544 12.774 6.621l.014-1zm.181.037l-10.185-4.13-.376.927 10.185 4.13.376-.927zM239 90.5V70.717h-1V90.5h1zm32.325 19.12l-2.071-1.775-.651.759 2.072 1.776.65-.76zm6.649 19.722l-6.5-19.5-.948.316 6.5 19.5.948-.316zm-3.481 20.742l3.5-20.5-.986-.168-3.5 20.5.986.168zm-11.625 12.755l11.5-12.5-.736-.678-11.5 12.5.736.678zm-2.363.581l2.095-.43-.2-.98-2.096.43.201.98zm.317-.764a14.4 14.4 0 01-.631-1.061l-.881.473c.211.393.437.772.676 1.136l.836-.548zm-.631-1.061c-1.932-3.601-1.824-7.975-.168-11.624 1.656-3.645 4.832-6.515 8.983-7.166l-.155-.988c-4.541.712-7.97 3.846-9.738 7.741-1.767 3.892-1.903 8.597.197 12.51l.881-.473zm9.237-19.284v-34.087h-1v34.087h1zM97.331 115.285c2.941.461 5.718 2.325 7.674 4.86 1.956 2.534 3.048 5.684 2.694 8.667l.993.118c.391-3.298-.817-6.703-2.895-9.396-2.078-2.693-5.067-4.728-8.311-5.237l-.155.988zm-.423-17.135v16.641h1v-16.64h-1zm2.822-5.503c-.817.672-1.548 1.266-2.051 2.09-.515.844-.768 1.882-.77 3.413l1 .001c.002-1.421.236-2.258.623-2.893.4-.654.986-1.142 1.832-1.838l-.635-.773zm1.497-1.29c-.543.505-1.04.915-1.498 1.29l.635.773c.457-.375.977-.802 1.545-1.332l-.682-.731zm4.121-4.064l-4.131 4.073.702.712 4.131-4.073-.702-.712zm3.881-3.589l-3.869 3.578.679.734 3.869-3.578-.679-.734zm.301-.302l-.315.315.706.708.317-.317-.708-.706zm4.916-4.412c-.604.334-1.541 1.153-2.442 1.995-.919.86-1.856 1.798-2.474 2.417l.708.706c.619-.62 1.545-1.547 2.449-2.392.923-.863 1.768-1.588 2.243-1.85l-.484-.876zm2.851.043c-.805-.307-1.719-.672-2.852-.042l.486.874c.689-.384 1.187-.211 2.009.102l.357-.934zm.733.258a9.995 9.995 0 01-.733-.258l-.357.934c.242.092.513.196.806.283l.284-.96zm4.637.729c-.542.023-1.407-.07-2.306-.22a21.433 21.433 0 01-2.331-.51l-.284.96c.61.18 1.533.384 2.451.537.91.151 1.861.26 2.513.232l-.043-1zM136.4 66.17c.298 7.836-6.112 13.51-13.733 13.85l.043.999c8.059-.359 15.012-6.397 14.689-14.887l-.999.038zm-21.765-10.889c8.86-5.597 21.355.194 21.765 10.89l.999-.039c-.442-11.55-13.86-17.658-23.298-11.696l.534.845zm-6.474 10.886c.144-4.488 2.694-8.5 6.474-10.886l-.534-.845c-4.028 2.542-6.783 6.843-6.94 11.699l1 .032zm.277 2.303c-.158-.93-.295-1.748-.277-2.303l-1-.032c-.022.68.14 1.616.291 2.503l.986-.168zm.067 4.003c.142-.258.209-.56.238-.858.03-.303.024-.636-.001-.977-.05-.68-.182-1.45-.304-2.168l-.986.168c.125.73.247 1.45.293 2.073.022.31.025.58.003.806-.023.23-.068.381-.118.472l.875.484zm-3.363 3.418c.629-.555 1.342-1.183 1.952-1.775.596-.577 1.148-1.168 1.411-1.643l-.875-.484c-.181.327-.625.822-1.231 1.409-.591.572-1.286 1.185-1.918 1.744l.661.75zm-1.305 1.181c.313-.305.777-.714 1.305-1.18l-.661-.75c-.521.46-1.007.888-1.342 1.214l.698.717zm-10.241 9.906l10.24-9.904-.695-.72-10.24 9.905.695.719zm-1.757 1.569c.543-.466 1.135-.975 1.755-1.567l-.691-.723a41.788 41.788 0 01-1.716 1.531l.652.759zm-3.53 6.41c.02-1.743.393-2.885.987-3.804.607-.94 1.463-1.679 2.543-2.606l-.652-.759c-1.056.907-2.03 1.74-2.731 2.823-.714 1.104-1.125 2.438-1.148 4.334l1 .012zm0 17.594v-17.6h-1v17.6h1zm.001.284a24.43 24.43 0 01-.002-.284h-1l.002.296 1-.012zm-.406 2.419c.235-.371.33-.823.373-1.23.043-.413.037-.842.033-1.189l-1 .012c.004.357.008.727-.028 1.073-.037.352-.11.622-.223.799l.845.535zm-1.71 1.365c.352-.213.69-.418.975-.626.284-.209.55-.445.735-.739l-.845-.535c-.09.141-.24.29-.481.467-.242.177-.539.358-.902.578l.518.855zm-3.609 2.969c1.274-1.553 2.58-2.346 3.61-2.969l-.519-.855c-1.043.631-2.475 1.497-3.864 3.19l.773.634zm-1.274 15.116c-2.806-4.921-2.328-10.732 1.274-15.115l-.773-.635c-3.867 4.705-4.38 10.965-1.37 16.245l.87-.495zm11.346 6.745c-4.687-.456-8.998-2.624-11.346-6.745l-.868.495c2.548 4.474 7.197 6.766 12.117 7.245l.097-.995zm2.742-.136c-.738.113-1.588.241-2.745.135l-.091.996c1.285.118 2.236-.028 2.987-.143l-.15-.988zm2.55.191c-.876-.461-1.701-.321-2.55-.191l.151.988c.899-.137 1.392-.197 1.932.088l.466-.885zm3.165 3.607c-.538-.753-1.084-1.517-1.604-2.151-.508-.619-1.04-1.176-1.558-1.454l-.473.881c.328.176.752.591 1.258 1.207.494.603 1.02 1.338 1.563 2.098l.814-.581zm2.732 3.315c-.379-.29-.811-.762-1.285-1.357-.469-.59-.955-1.27-1.447-1.958l-.814.581c.489.684.991 1.386 1.479 2 .484.608.979 1.161 1.46 1.528l.607-.794zm5.083 1.065c-.863-.001-1.818-.02-2.726-.168-.911-.148-1.734-.42-2.357-.897l-.607.794c.807.618 1.812.929 2.803 1.09.994.162 2.018.18 2.885.181l.002-1zm65.599 0h-65.599l-.002 1h65.601v-1zm.284-.002l-.284.002v1l.296-.002-.012-1zm2.419.406c-.371-.235-.823-.33-1.23-.372-.413-.044-.842-.038-1.189-.034l.012 1a9.543 9.543 0 011.073.028c.352.037.622.111.799.223l.535-.845zm1.372 1.718c-.224-.362-.436-.705-.645-.99-.209-.283-.443-.547-.726-.727l-.537.843c.129.083.276.231.458.478.18.245.369.55.6.922l.85-.526zm2.372 3.132c-1.136-1.136-1.821-2.241-2.372-3.132l-.85.526c.554.896 1.29 2.089 2.514 3.313l.708-.707zm8.643 3.974c-3.116-.313-6.442-1.773-8.643-3.974l-.708.707c2.381 2.381 5.929 3.929 9.251 4.262l.1-.995zm15.45-12.574c-.095 7.943-7.824 13.336-15.45 12.574l-.1.995c8.067.806 16.447-4.892 16.55-13.557l-1-.012zm0-1.274v1.28h1v-1.28h-1zm-14.508-12.912c7.43-.477 14.474 5.417 14.508 12.914l1-.004c-.036-8.138-7.635-14.417-15.572-13.908l.064.998zm-9.294 3.741c2.554-2.301 5.857-3.52 9.294-3.741l-.064-.998c-3.628.233-7.154 1.523-9.899 3.996l.669.743zm-2.745 3.571c.581-1.007 1.318-2.282 2.745-3.571l-.67-.742c-1.551 1.401-2.353 2.794-2.941 3.813l.866.5zm-1.367 1.762c.302-.187.54-.46.747-.753.208-.293.409-.643.62-1.009l-.866-.5c-.218.378-.395.684-.57.931-.174.247-.321.396-.459.482l.528.849zm-3.579.498a24.635 24.635 0 001.749-.088c.346-.032.698-.075 1.004-.134.288-.056.602-.137.825-.275l-.526-.851c-.054.034-.209.09-.488.144a9.66 9.66 0 01-.906.12c-.658.06-1.336.079-1.672.084l.014 1zm-61.128 0h61.121v-1h-61.12l-.001 1zm-5.717-3.08c.924 1.232 1.541 2.052 2.354 2.518.834.478 1.818.559 3.363.562l.001-1c-1.565-.003-2.292-.1-2.866-.429-.595-.341-1.082-.958-2.052-2.251l-.8.6zm-.144-.188l.144.188.799-.601-.15-.196-.793.609zm-1.206-2.175c.034.402.274.84.493 1.184.233.367.512.729.713.991l.793-.609c-.205-.268-.457-.595-.662-.919-.221-.347-.329-.599-.34-.732l-.997.085zm.848-2.229c-.183.341-.399.743-.564 1.113a4.594 4.594 0 00-.209.551c-.05.17-.092.371-.075.566l.997-.087v-.014l.004-.041c.006-.037.016-.084.033-.143a3.64 3.64 0 01.164-.426c.146-.329.343-.696.531-1.046l-.881-.473zm.364-.709c-.074.169-.204.411-.364.709l.881.473c.152-.282.305-.565.399-.78l-.916-.402zm1.107-4.338c-.179 1.506-.512 2.972-1.108 4.339l.917.4c.646-1.481.998-3.049 1.184-4.621l-.993-.118zm74.885-61.387c3.822-.432 7.714 1.023 10.599 3.595 2.883 2.572 4.721 6.223 4.497 10.143l.999.057c.243-4.279-1.763-8.21-4.83-10.946-3.067-2.734-7.234-4.311-11.377-3.842l.112.993zm-8.901 3.77c2.782-2.604 5.208-3.214 8.919-3.772l-.148-.989c-3.783.569-6.452 1.22-9.455 4.03l.684.73zm-2.414 2.896c.618-1.015 1.526-2.072 2.412-2.895l-.681-.733c-.937.873-1.91 1.999-2.585 3.108l.854.52zm-.332.61c.12-.232.225-.435.331-.61l-.853-.52c-.128.21-.251.447-.366.671l.888.46zm-1.351 1.788c.342-.213.603-.524.81-.833.208-.31.386-.655.541-.955l-.888-.459c-.161.31-.312.602-.483.857-.171.255-.338.435-.509.541l.529.85zm-2.459.404c.352.004.788.009 1.209-.034.414-.043.873-.137 1.249-.369l-.526-.85c-.184.113-.463.187-.825.224a9.92 9.92 0 01-1.096.03l-.011 1zm-.279-.002l.279.002.011-1a26.529 26.529 0 00-.29-.002v1zm-16 0h16v-1h-16v1zm-5.328 2.26c.822-.807 1.377-1.345 2.106-1.704.717-.354 1.644-.553 3.222-.556l-.001-1c-1.654.003-2.755.21-3.664.659-.897.443-1.565 1.104-2.363 1.887l.7.714zm-1.704 1.592c.691-.6 1.235-1.133 1.704-1.592l-.7-.714c-.469.459-.994.973-1.66 1.55l.656.756zM132.95 90.926l10.88-10.196-.684-.73-10.88 10.196.684.73zm-1.178 1.126c.481-.47.899-.88 1.167-1.117l-.662-.749c-.292.259-.733.69-1.204 1.151l.699.715zm-2.776 2.455c.173-.089.373-.237.572-.399.207-.167.44-.373.683-.596.486-.447 1.032-.981 1.521-1.46l-.699-.715c-.492.482-1.026 1.004-1.499 1.438-.236.217-.452.408-.636.557a2.759 2.759 0 01-.397.284l.455.89zm-2.586-.011c.717.218 1.611.508 2.585.011l-.454-.89c-.569.29-1.077.154-1.841-.078l-.29.957zm-.635-.178c.209.049.415.111.635.178l.29-.957c-.215-.065-.452-.137-.698-.195l-.227.974zm-4.319-.415c1.352-.13 2.943.094 4.319.415l.227-.974c-1.421-.331-3.133-.581-4.642-.436l.096.995zm-13.295 13.829c-.304-7.73 5.838-13.118 13.295-13.829l-.096-.995c-7.846.748-14.528 6.472-14.199 14.863l1-.039zm22.564 10.417c-4.42 3.044-9.957 3.256-14.449 1.288-4.484-1.964-7.895-6.085-8.115-11.705l-1 .039c.238 6.05 3.925 10.484 8.714 12.582 4.78 2.094 10.687 1.877 15.417-1.38l-.567-.824zm5.65-11.64c.342 4.539-1.916 9.068-5.65 11.64l.567.824c4.016-2.766 6.449-7.632 6.08-12.539l-.997.075zm-.687-3.385c.408 1.106.597 2.184.687 3.385l.997-.075c-.095-1.264-.297-2.439-.746-3.656l-.938.346zm-.149-.363c.059.139.11.258.15.365l.936-.35a10.157 10.157 0 00-.165-.405l-.921.39zm-.361-2.061c-.124.388-.071.789.017 1.123.089.337.231.67.344.938l.921-.39a6.094 6.094 0 01-.298-.802c-.068-.259-.071-.441-.031-.565l-.953-.304zm3.246-3.369c-.585.541-1.336 1.234-1.957 1.843-.31.304-.593.593-.81.835-.108.12-.204.235-.281.338-.067.09-.154.217-.197.352l.952.305c-.012.035-.014.022.047-.06.052-.069.126-.159.224-.268.195-.218.461-.489.765-.788.608-.596 1.348-1.279 1.936-1.822l-.679-.735zm.872-.815c-.155.154-.471.445-.872.815l.679.735c.392-.362.726-.67.897-.84l-.704-.71zm8.652-8.04l-8.64 8.029.681.732 8.64-8.028-.681-.733zm1.383-1.397c-.387.411-.821.874-1.384 1.397l.682.733c.589-.549 1.044-1.034 1.431-1.445l-.729-.685zm5.037-2.228c-1.403.003-2.338.178-3.104.575-.754.39-1.297.976-1.933 1.653l.729.685c.662-.705 1.089-1.152 1.664-1.45.564-.292 1.316-.46 2.645-.463l-.001-1zm12.48 0h-12.48v1h12.48v-1zm.28-.002l-.28.002v1c.094 0 .192 0 .29-.002l-.01-1zm2.466.397c-.384-.225-.837-.319-1.254-.361-.42-.044-.854-.04-1.212-.036l.01 1a9.995 9.995 0 011.1.03c.36.037.647.11.85.23l.506-.863zm4.078 5.21l-3.936-5.085-.79.613 3.936 5.084.79-.612zm9.182 3.675c-3.23-.04-6.933-1.462-9.226-3.725l-.702.712c2.494 2.46 6.452 3.97 9.916 4.013l.012-1zm7.744-1.68c-2.559 1.48-4.787 1.715-7.744 1.68l-.012 1c3.034.036 5.472-.203 8.257-1.814l-.501-.866zm7.082-11.288c-.281 4.907-2.826 8.82-7.083 11.288l.502.866c4.53-2.627 7.278-6.835 7.58-12.097l-.999-.057zm41.744 29.288h-26.496v1h26.496v-1zm.463 6.197c.058-.141.082-.332.097-.488a9.98 9.98 0 00.037-.638c.015-.483.014-1.082.005-1.687a65.78 65.78 0 00-.103-2.92l-.997.073c.031.424.082 1.663.1 2.862.009.599.01 1.18-.005 1.641a9.256 9.256 0 01-.032.572c-.017.17-.033.22-.028.206l.926.379zm-5.23 3.574l5.044-3.347-.553-.833-5.044 3.347.553.833zm-4.471 10.223c-.187-3.634 1.717-7.951 4.513-10.254l-.636-.771c-3.041 2.504-5.079 7.127-4.876 11.077l.999-.052zm27.12 4.937c-2.922 6.366-9.497 8.804-15.482 7.794-5.976-1.008-11.262-5.434-11.638-12.731l-.999.052c.405 7.849 6.122 12.594 12.471 13.665 6.34 1.07 13.411-1.507 16.557-8.362l-.909-.418zm-2.526-14.471c3.706 3.836 4.755 9.617 2.526 14.471l.909.418c2.404-5.238 1.27-11.458-2.716-15.584l-.719.695zm-3.372-2.513c1.194.653 2.441 1.551 3.372 2.513l.719-.695c-1.015-1.048-2.347-2.004-3.611-2.696l-.48.878zm-.575-.282c.222.104.415.194.575.282l.48-.878c-.194-.106-.418-.21-.632-.31l-.423.906zm-1.834-1.259c.216.325.543.57.857.76.318.192.673.357.977.499l.423-.906c-.314-.147-.618-.289-.882-.449-.269-.162-.448-.315-.543-.458l-.832.554zm-.408-1.902c.009.509.007 1.294.406 1.9l.835-.55c-.209-.317-.231-.781-.241-1.367l-1 .017zm-.003-.153l.003.153 1-.017-.003-.158-1 .022zm0-7.051v7.04h1v-7.04h-1zm-2.85-5.075c1.252.393 1.938 1.065 2.33 1.899.406.863.519 1.942.52 3.176h1c-.001-1.265-.111-2.53-.615-3.602-.519-1.101-1.432-1.956-2.935-2.427l-.3.954zm-2.134-.186c.771-.003 1.537-.002 2.134.186l.301-.954c-.776-.244-1.711-.235-2.44-.232l.005 1zm-.276.001l.276-.001-.005-1-.271.001v1zm-33.92 0h33.92v-1h-33.92v1zm-.286-.001l.286.001v-1l-.282-.001-.004 1zm-2.421.255c.694-.256 1.54-.259 2.421-.255l.004-1c-.837-.003-1.876-.014-2.771.317l.346.938zm-6.873 5.937c1.245-1.238 2.616-2.6 3.865-3.723a25.516 25.516 0 011.734-1.445c.529-.393.959-.653 1.274-.769l-.346-.938c-.453.167-.976.497-1.525.905-.556.414-1.169.932-1.805 1.504-1.272 1.142-2.661 2.523-3.902 3.756l.705.71zm-2.892 2.781c.729-.632 1.764-1.661 2.892-2.781l-.705-.71c-1.139 1.133-2.145 2.131-2.842 2.736l.655.755zm-1.39 1.31c.376-.374.81-.806 1.39-1.31l-.656-.755c-.608.528-1.062.981-1.44 1.356l.706.709zm-4.698 1.878c1.327-.002 2.195-.131 2.901-.457.701-.324 1.197-.825 1.797-1.421l-.706-.709c-.626.623-.998.986-1.51 1.222-.508.235-1.201.363-2.483.365l.001 1zm-15.68 0h15.68v-1h-15.68v1zm-.28.002l.28-.002v-1l-.289.002.009 1zm-2.466-.397c.384.225.837.319 1.254.362.421.043.854.038 1.212.035l-.009-1a9.795 9.795 0 01-1.101-.03c-.359-.037-.647-.111-.85-.23l-.506.863zm-1.475-1.804c.413.714.796 1.403 1.474 1.803l.509-.861c-.408-.24-.666-.662-1.117-1.442l-.866.5zm-2.246-3.059c1.175 1.206 1.77 2.234 2.246 3.059l.866-.5c-.486-.842-1.131-1.959-2.396-3.257l-.716.698zm-9.219-4.022c3.359.04 6.869 1.61 9.219 4.022l.716-.698c-2.526-2.593-6.286-4.281-9.923-4.324l-.012 1zm-13.667 7.101c2.932-5.349 7.782-7.17 13.667-7.101l.012-1c-6.121-.072-11.39 1.845-14.556 7.62l.877.481zm11.759 19.419c-9.773-.114-16.529-10.715-11.759-19.419l-.877-.481c-5.163 9.421 2.16 20.778 12.624 20.9l.012-1zm10.543-3.452c-3.245 2.875-6.29 3.499-10.543 3.452l-.011 1c4.399.049 7.722-.607 11.217-3.703l-.663-.749zm2.316-2.712c-.637 1.026-1.404 1.902-2.317 2.713l.664.747c.975-.866 1.808-1.814 2.503-2.932l-.85-.528zm.381-.673c-.136.252-.258.477-.38.672l.848.53c.142-.226.279-.481.412-.726l-.88-.476zm1.607-2.047c-.396.235-.704.585-.953.942-.25.357-.465.755-.654 1.105l.88.476c.194-.36.382-.707.593-1.008.212-.302.422-.524.643-.654l-.509-.861zm2.467-.398c-.358-.003-.791-.008-1.212.035-.417.043-.87.137-1.254.362l.506.863c.203-.119.491-.193.85-.23.356-.036.733-.033 1.101-.03l.009-1zm.28.002l-.28-.002-.009 1 .289.002v-1zm19.2 0h-19.2v1h19.2v-1zm.305.001l-.305-.001v1l.3.001.005-1zm2.389-.288c-.727.291-1.497.293-2.389.288l-.005 1c.861.004 1.828.015 2.766-.36l-.372-.928zm7.576-6.506c-1.299 1.26-2.835 2.749-4.24 4.001a33.255 33.255 0 01-1.949 1.628c-.59.449-1.062.747-1.386.877l.37.928c.458-.182 1.02-.552 1.621-1.008a34.66 34.66 0 002.009-1.678c1.424-1.269 2.975-2.773 4.271-4.03l-.696-.718zm2.195-2.092c-.545.493-1.319 1.243-2.195 2.092l.696.718c.882-.855 1.641-1.59 2.17-2.069l-.671-.741zm1.349-1.324c-.367.38-.789.817-1.349 1.324l.671.741c.587-.532 1.029-.989 1.398-1.37l-.72-.695zm4.746-1.951c-1.35.003-2.232.137-2.945.476-.709.337-1.204.858-1.801 1.475l.72.695c.623-.646.995-1.022 1.51-1.267.512-.243 1.214-.376 2.517-.379l-.001-1z"
      fill="#05FF00" />

  </g>
  <g id="cloud">
    <path
      d="M199.68 40.097c3.846-1.257 9.078-2.511 13.12-2.56 15.577-.182 30.221 6.98 38.121 20.8 2.26 3.952 4.036 8.33 4.935 12.8l.729 4.8c.087.89-.064 2.01.567 2.717.585.663 3.299 1.437 4.288 1.828 2.182.867 6.304 2.944 8.32 4.16 7.731 4.668 14.8 12.156 19.101 20.095 13.052 24.08 6.569 53.808-15.581 70.119-4.375 3.219-9.255 5.712-14.4 7.427-4.483 1.494-9.984 2.768-14.72 2.774H61.44c-5.146-.009-11.754-1.571-16.64-3.2-25.66-8.553-42.666-31.11-44.509-57.92l-.291-3.2v-1.6l.291-3.84c1.805-26.25 17.92-47.782 42.589-57.094 5.062-1.91 13.5-3.962 18.88-4.026h8c.726 0 1.811.07 2.435-.326.896-.573 1.357-2.246 1.78-3.194l3.052-6.4c4.89-11.244 8.989-19.027 18.333-27.465C115.315-1.23 144.95-5.1 168.96 6.904c6.259 3.13 12.025 7.46 16.96 12.393 4.717 4.717 11.926 14.369 13.76 20.8zM134.4 22.91c-8.95 1.367-15.667 3.936-22.72 9.802-1.648 1.37-3.27 2.8-4.582 4.505-.688.897-3.546 6.25-3.991 7.36l-1.584 6.08-1.545 4.8-1.604 6.72c-1.29 5.812-2.841 12.308-9.414 14.16-1.718.487-2.72.557-4.48.56H64c-4.598.055-10.477 1.444-14.72 3.204-4.874 2.022-10.352 5.523-14.026 9.305-13.76 14.17-16.419 36.32-5.798 53.091 2.208 3.485 4.822 6.746 7.984 9.412 3.373 2.844 7.1 5.363 11.2 7.036 4.714 1.924 9.914 3.386 15.04 3.392h180.16c2.781-.035 6.697-1.065 9.28-2.112 11.437-4.633 18.656-14.787 19.549-27.008.08-1.094.313-1.744.233-2.88-.909-12.771-7.165-23.673-19.462-28.656-8.746-3.542-12.979-.71-17.815-6.543-1.779-2.145-2.905-5.2-2.611-8 .224-2.125.874-3.108.906-5.76.045-3.965-.144-6.56-1.885-10.24-3.315-7.009-10.688-10.964-18.275-10.88-3.306.038-6.778 1.046-9.6 2.758-3.008 1.82-3.421 2.886-5.44 4.131-3.77 2.326-8.151 2.25-11.84-.202-5.095-3.388-4.749-7.286-6.045-12.447-.842-3.348-2.33-6.89-3.974-9.92C168.451 29.06 151.625 21.3 134.4 22.91z"
      fill="#fff" />
  </g>
</svg>
